Coordinates
version=1
nRows=9
nColumns=63
inDegrees=yes

Units are S.I. units (second, meters, Newtons, ...)
If the header above contains a line with 'inDegrees', this indicates whether rotational values are in degrees (yes) or radians (no).

endheader
time	pelvis_tilt	pelvis_list	pelvis_rotation	pelvis_tx	pelvis_ty	pelvis_tz	hip_flexion_r	hip_adduction_r	hip_rotation_r	knee_angle_r	knee_angle_r_beta	ankle_angle_r	subtalar_angle_r	mtp_angle_r	hip_flexion_l	hip_adduction_l	hip_rotation_l	knee_angle_l	knee_angle_l_beta	ankle_angle_l	subtalar_angle_l	mtp_angle_l	L5_S1_Flex_Ext	L5_S1_Lat_Bending	L5_S1_axial_rotation	L4_L5_Flex_Ext	L4_L5_Lat_Bending	L4_L5_axial_rotation	L3_L4_Flex_Ext	L3_L4_Lat_Bending	L3_L4_axial_rotation	L2_L3_Flex_Ext	L2_L3_Lat_Bending	L2_L3_axial_rotation	L1_L2_Flex_Ext	L1_L2_Lat_Bending	L1_L2_axial_rotation	L1_T12_Flex_Ext	L1_T12_Lat_Bending	L1_T12_axial_rotation	Abs_r3	Abs_r2	Abs_r1	Abs_t1	Abs_t2	neck_flexion	neck_bending	neck_rotation	arm_flex_r	arm_add_r	arm_rot_r	elbow_flex_r	pro_sup_r	wrist_flex_r	wrist_dev_r	arm_flex_l	arm_add_l	arm_rot_l	elbow_flex_l	pro_sup_l	wrist_flex_l	wrist_dev_l
      3.13559322	      0.64570038	     -2.53762539	     92.11917479	      0.20663070	      1.02050148	      0.30603361	    -11.29807782	      1.83390539	     -7.28050552	      1.92659165	      0.03362537	     21.29733862	     -2.88796829	      0.00000000	    -11.37522844	     -3.46383609	      1.74157918	      0.30886198	      0.00539066	     22.46110882	      1.89487687	      0.00000000	      0.04102714	      0.26849966	     -1.28742369	      0.07619150	      0.35710455	     -1.36788767	      0.06740349	      0.65283007	     -1.36788767	      0.04688992	      0.65283007	     -1.12649573	      0.03809780	      0.54752450	     -1.04603175	      0.02344291	      0.41590597	     -0.96556776	      0.29305275	      3.03732184	     -7.16026432	      0.00000000	      0.00000000	     19.54951352	      7.09922072	      7.38110181	     -8.21793598	    -27.54632806	     39.39046046	    110.65580118	     38.02723280	     -5.35729977	     16.27776302	    -13.45338041	    -21.79172872	     31.39905362	    109.14387185	     57.89720104	      4.32143362	     27.16792082
      3.15254237	      0.67409970	     -2.48829795	     92.21056690	      0.20645924	      1.02044954	      0.30591545	    -11.32212305	      1.88562347	     -7.10841177	      2.05301118	      0.03583180	     21.07805841	     -3.79445157	      0.00000000	    -11.41524771	     -3.50927099	      1.70502867	      0.30936816	      0.00539949	     22.66748234	      2.24361465	      0.00000000	      0.03252254	      0.27161689	     -1.32052158	      0.06039761	      0.36125046	     -1.40305418	      0.05343128	      0.66040929	     -1.40305418	      0.03717001	      0.66040929	     -1.15545638	      0.03020043	      0.55388115	     -1.07292379	      0.01858338	      0.42073455	     -0.99039119	      0.23230525	      3.07258453	     -7.34434488	      0.00000000	      0.00000000	     19.02705070	      6.86559888	      7.39005020	     -7.94524752	    -27.34819491	     39.62024657	    110.01568749	     35.91392955	     -4.05672201	     18.33078258	    -13.84558682	    -21.69739339	     30.98497859	    109.38875319	     58.86943547	      4.03434892	     28.53407706
      3.16949153	      0.65391046	     -2.47632291	     92.16768177	      0.20660867	      1.02036701	      0.30579884	    -11.35119679	      1.88870464	     -6.10764666	      2.07494779	      0.03621467	     20.63175071	     -5.54990897	      0.00000000	    -11.42446477	     -3.48539293	      1.42549018	      0.30966564	      0.00540468	     22.92813596	      2.82390664	      0.00000000	      0.02735053	      0.26693708	     -1.33188515	      0.05079268	      0.35502632	     -1.41512797	      0.04493419	      0.64903082	     -1.41512797	      0.03125893	      0.64903082	     -1.16539950	      0.02539771	      0.54433810	     -1.08215668	      0.01562810	      0.41348554	     -0.99891386	      0.19536213	      3.01964564	     -7.40754561	      0.00000000	      0.00000000	     18.62645166	      6.82284778	      7.63365736	     -7.59825600	    -27.20042117	     40.08342158	    109.21094105	     34.65436997	     -2.28438050	     19.05725762	    -14.48439455	    -21.58213751	     30.41648217	    109.47371104	     61.07254737	      4.82499291	     28.59457935
      3.18644068	      0.66211877	     -2.48116448	     92.25642829	      0.20646053	      1.02021371	      0.30571162	    -11.35363749	      1.91345703	     -6.40671492	      2.12125295	      0.03702285	     20.41690761	     -5.66714200	      0.00000000	    -11.38923737	     -3.50258196	      1.41030305	      0.30913501	      0.00539542	     23.34644129	      3.29745866	      0.00000000	      0.02730084	      0.26685492	     -1.33222165	      0.05070039	      0.35491704	     -1.41548550	      0.04485255	      0.64883105	     -1.41548550	      0.03120213	      0.64883105	     -1.16569394	      0.02535156	      0.54417055	     -1.08243009	      0.01559970	      0.41335827	     -0.99916624	      0.19500717	      3.01871622	     -7.40941715	      0.00000000	      0.00000000	     18.35310265	      6.61511990	      7.49983482	     -7.56638200	    -27.04023331	     40.14210139	    108.91211020	     33.83395895	     -2.10460002	     19.81873400	    -14.96395215	    -21.42354283	     30.02236832	    109.58073613	     62.74400966	      5.37286865	     29.17834782
      3.20338983	      0.61665124	     -2.49032118	     92.18002279	      0.20666272	      1.02000063	      0.30580397	    -11.35204865	      1.84674277	     -6.85948205	      2.12021736	      0.03700477	     20.35064211	     -5.05164855	      0.00000000	    -11.35952288	     -3.43811525	      1.43376307	      0.31155887	      0.00543773	     23.84061967	      3.51471546	      0.00000000	      0.02072236	      0.26152570	     -1.29380983	      0.03848349	      0.34782918	     -1.37467295	      0.03404476	      0.63587358	     -1.37467295	      0.02368358	      0.63587358	     -1.13208360	      0.01924278	      0.53330320	     -1.05122049	      0.01184075	      0.40510330	     -0.97035738	      0.14801772	      2.95843099	     -7.19578215	      0.00000000	      0.00000000	     18.55380360	      6.49077441	      7.49269120	     -7.48602246	    -26.89181741	     40.22287074	    108.68523001	     33.76136890	     -1.89782840	     19.38732213	    -15.22076392	    -21.47660696	     30.03258903	    109.51964168	     63.27886220	      5.72985993	     28.54630748
      3.22033898	      0.61748952	     -2.51999594	     92.32330860	      0.20652498	      1.01988232	      0.30563340	    -11.32221352	      1.89847830	     -7.17188777	      2.15768480	      0.03765870	     19.70273927	     -5.50798428	      0.00000000	    -11.29672781	     -3.46464025	      1.30291326	      0.30768850	      0.00537018	     24.11266090	      4.20699108	      0.00000000	      0.03202601	      0.25642808	     -1.35191776	      0.05947551	      0.34104935	     -1.43641262	      0.05261554	      0.62347924	     -1.43641262	      0.03660253	      0.62347924	     -1.18292804	      0.02973935	      0.52290815	     -1.09843318	      0.01829966	      0.39720710	     -1.01393832	      0.22875860	      2.90076575	     -7.51896099	      0.00000000	      0.00000000	     18.26880660	      6.41690822	      7.09995180	     -7.31760425	    -26.63519570	     40.04221931	    108.48882610	     33.25248250	     -1.66520863	     20.51296615	    -16.10583119	    -20.93083584	     28.85985863	    109.81133752	     66.51202519	      6.74941308	     29.57064824
      3.23728814	      0.57108281	     -2.39512884	     92.21857189	      0.20672319	      1.01987749	      0.30570809	    -11.49140281	      1.83642821	     -7.95596773	      2.06289391	      0.03600429	     19.34541706	     -4.46543279	      0.00000000	    -11.42696329	     -3.39567425	      1.22694609	      0.30122679	      0.00525740	     24.40081884	      4.30189815	      0.00000000	      0.00439848	      0.25089217	     -1.31611274	      0.00816843	      0.33368658	     -1.39836979	      0.00722627	      0.61001921	     -1.39836979	      0.00502703	      0.61001921	     -1.15159865	      0.00408443	      0.51161931	     -1.06934160	      0.00251329	      0.38863197	     -0.98708455	      0.03141794	      2.83814237	     -7.31982423	      0.00000000	      0.00000000	     18.64816561	      6.35091740	      6.91265390	     -7.17479587	    -26.53077645	     40.04195615	    108.38633123	     33.73912287	     -1.50959967	     19.70490216	    -16.29031951	    -20.95597049	     28.82702633	    109.73344317	     66.42950056	      6.90668807	     28.70097038
      3.25423729	      0.53088616	     -2.53473160	     92.33490341	      0.20669825	      1.01962599	      0.30572075	    -11.30266665	      1.82908916	     -8.47920427	      2.15561320	      0.03762255	     18.86932907	     -4.49989744	      0.00000000	    -11.24847341	     -3.38202048	      1.03076663	      0.30127361	      0.00525822	     24.59062780	      4.94748866	      0.00000000	      0.03092602	      0.24069440	     -1.36478783	      0.05743272	      0.32012356	     -1.45008707	      0.05080836	      0.58522437	     -1.45008707	      0.03534535	      0.58522437	     -1.19418935	      0.02871791	      0.49082403	     -1.10889011	      0.01767113	      0.37283563	     -1.02359087	      0.22090150	      2.72278323	     -7.59054046	      0.00000000	      0.00000000	     18.59068823	      6.20036577	      6.30902383	     -7.00382017	    -26.28091149	     39.91014320	    108.33967054	     34.34505365	     -1.66829818	     20.81483402	    -16.86401302	    -20.65535500	     28.05041311	    109.94077895	     68.66581273	      7.48782885	     29.23004602
      3.27118644	      0.52455016	     -2.55510014	     92.32737662	      0.20675239	      1.01955761	      0.30574595	    -11.28686107	      1.82901687	     -8.94354289	      2.12492539	      0.03708694	     18.48817201	     -4.15215638	      0.00000000	    -11.22061083	     -3.37552703	      0.77981862	      0.29967983	      0.00523040	     24.69299818	      5.30033266	      0.00000000	      0.03402106	      0.23931456	     -1.36839719	      0.06318051	      0.31828836	     -1.45392201	      0.05589320	      0.58186941	     -1.45392201	      0.03888267	      0.58186941	     -1.19734754	      0.03159196	      0.48801025	     -1.11182271	      0.01943963	      0.37069825	     -1.02629789	      0.24300903	      2.70717413	     -7.61061464	      0.00000000	      0.00000000	     18.63465654	      6.07586547	      6.04073613	     -6.84047312	    -26.20279425	     39.99057829	    108.29876361	     35.02158112	     -1.72185713	     20.82258592	    -16.90520740	    -20.67733475	     27.96715238	    109.93538997	     68.47633399	      7.44366670	     29.27754059
